# xmcd
#
# Track frame offsets:
#	151
#	19584
#	38039
#	62842
#	78945
#	97894
#	118683
#	137904
#	152341
#	177578
#	194519
#
# Disc length: 2906 seconds
# Revision: 0
# Processed by: cddbd v1.5.2PL0 Copyright (c) Steve Scherf et al.
# Submitted via: dBpowerAMP V12.0
#
DISCID=890b580b
DTITLE=Duketown Dogs - Tail Chasing
DYEAR=2010
DGENRE=Blues
TTITLE0=Don't Take Advantage of Me
TTITLE1=Booger Full of Blues
TTITLE2=Line of Fire
TTITLE3=Strike Me Down
TTITLE4=Mean Old Dog
TTITLE5=Can't Do Nothing Right
TTITLE6=Last Ride Ever
TTITLE7=Sleeping on the Sidewalk
TTITLE8=Blue Jean Blues
TTITLE9=Amsterdam Blues
TTITLE10=See the Light
EXTD=
EXTT0=
EXTT1=
EXTT2=
EXTT3=
EXTT4=
EXTT5=
EXTT6=
EXTT7=
EXTT8=
EXTT9=
EXTT10=
PLAYORDER=
